<svg width="48" height="48" xmlns="http://www.w3.org/2000/svg">
    <title>70 Basic icons by Xicons.co</title>

    <g>
        <title>Layer 1</title>
        <path id="svg_1" fill="none" stroke="#8a53ff"/>
        <path id="svg_2" fill="#8a53ff" d="m41,26l-34,0a2,2 0 0 1 0,-4l34,0a2,2 0 0 1 0,4z" stroke="#8a53ff"/>
        <path id="svg_3" fill="#8a53ff" d="0" stroke="#6f7380"/>
        <path id="svg_4" fill="#8a53ff" d="m41.33557,37.74485l-34,0a2,2 0 0 1 0,-4l34,0a2,2 0 0 1 0,4z"
              stroke="#8a53ff"/>
        <path id="svg_5" fill="#8a53ff" d="m41,14.92628l-34,0a2,2 0 0 1 0,-4l34,0a2,2 0 0 1 0,4z" stroke="#8a53ff"/>
    </g>
</svg>