<?xml version="1.0" encoding="iso-8859-1"?>
<!-- Generator: Adobe Illustrator 17.1.0, SVG Export Plug-In . SVG Version: 6.00 Build 0)  -->
<!DOCTYPE svg PUBLIC "-//W3C//DTD SVG 1.1//EN" "http://www.w3.org/Graphics/SVG/1.1/DTD/svg11.dtd">
<svg version="1.1" id="Capa_1" xmlns="http://www.w3.org/2000/svg" xmlns:xlink="http://www.w3.org/1999/xlink" x="0px" y="0px"
	 viewBox="0 0 512 512" style="enable-background:new 0 0 512 512;" xml:space="preserve">
<g>
	<path d="M376,344h-56v-24c0-4.418-3.582-8-8-8c-4.149,0-7.607-2.255-9.251-6.033c-1.657-3.806-0.943-7.907,1.909-10.97
		C336.072,261.262,352,229.3,352,200c0-6.342-0.626-12.6-1.835-18.701c0.161-0.182,0.322-0.364,0.468-0.563
		c10.292-14.008,21.409-41.503,27.663-68.417c10.075-43.357,5.04-68.859-0.958-82.617c-5.744-13.173-15.242-22.252-27.801-26.773
		c-4.018-1.853-8.48-2.9-13.181-2.925c-0.038-0.001-0.076-0.003-0.113-0.003c-0.019,0-0.037-0.001-0.056-0.001
		c-17.645,0-32,14.355-32,32c0,2.761,0.352,5.442,1.013,8h-98.212c0.661-2.558,1.013-5.239,1.013-8c0-17.645-14.355-32-32-32
		c-0.016,0-0.032,0.001-0.049,0.001c-0.042,0-0.084,0.002-0.126,0.003c-4.7,0.025-9.159,1.073-13.176,2.925
		c-12.559,4.521-22.057,13.6-27.801,26.773c-5.999,13.758-11.034,39.26-0.958,82.617c6.254,26.914,17.371,54.409,27.663,68.417
		c0.1,0.136,0.213,0.256,0.319,0.384C160.64,187.277,160,193.595,160,200c0,29.3,15.928,61.262,47.342,94.997
		c2.852,3.063,3.566,7.164,1.909,10.97C207.607,309.745,204.149,312,200,312c-4.418,0-8,3.582-8,8v24h-56c-26.467,0-48,21.532-48,48
		s21.533,48,48,48c5.609,0,10.992-0.976,16-2.752V504c0,4.418,3.582,8,8,8s8-3.582,8-8v-76.261c9.812-8.795,16-21.556,16-35.739h144
		c0,14.183,6.188,26.944,16,35.739V504c0,4.418,3.582,8,8,8s8-3.582,8-8v-66.752c5.008,1.776,10.391,2.752,16,2.752
		c26.467,0,48-21.532,48-48S402.467,344,376,344z M362.712,108.697c-4.998,21.507-12.394,40.281-18.881,52.555
		c-5.912-13.368-14.887-25.367-26.463-34.991c-11.558-9.607-18.92-23.251-20.857-38.268C309.51,87.721,320,77.062,320,63.999v-4.412
		C324.752,62.387,330.283,64,336.187,64c13.122,0,24.419-7.942,29.351-19.269C369.585,60.874,368.657,83.114,362.712,108.697z
		 M335.784,16.021c2.681,0.34,5.182,0.898,7.513,1.667c5.26,2.624,8.89,8.046,8.89,14.312c0,8.822-7.178,16-16,16s-16-7.178-16-16
		C320.187,23.314,327.149,16.237,335.784,16.021z M192,32c0,8.822-7.178,16-16,16s-16-7.178-16-16c0-6.267,3.63-11.688,8.89-14.312
		c2.331-0.77,4.831-1.328,7.513-1.667C185.038,16.237,192,23.314,192,32z M149.475,108.697c-5.945-25.583-6.873-47.823-2.826-63.966
		C151.581,56.058,162.878,64,176,64c5.827,0,11.289-1.573,16-4.305v4.304c0,13.063,10.49,23.722,23.488,23.995
		c-1.937,15.017-9.299,28.66-20.857,38.269c-11.52,9.577-20.463,21.508-26.376,34.798
		C161.793,148.783,154.447,130.094,149.475,108.697z M208,328h64c4.418,0,8-3.582,8-8s-3.582-8-8-8h-47.939
		c4.017-9.591,2.121-20.25-5.01-27.907c-1.232-1.323-2.479-2.688-3.735-4.093H264c4.418,0,8-3.582,8-8s-3.582-8-8-8h-61.827
		C188.085,245.18,176,222.482,176,200h104c4.418,0,8-3.582,8-8s-3.582-8-8-8H177.617c0.552-2.708,1.24-5.378,2.065-8H280
		c4.418,0,8-3.582,8-8s-3.582-8-8-8h-93.261c4.666-8.047,10.762-15.316,18.121-21.434c15.219-12.652,24.706-30.761,26.729-50.566
		H256c4.418,0,8-3.582,8-8s-3.582-8-8-8h-32h-7.999c-4.412,0-8.001-3.589-8.001-8.001V56h96v7.999c0,4.412-3.589,8.001-8.001,8.001
		H288c-4.418,0-8,3.582-8,8c0,22.882,9.892,44.228,27.14,58.565c7.359,6.118,13.455,13.388,18.121,21.435H312c-4.418,0-8,3.582-8,8
		s3.582,8,8,8h20.318c0.826,2.622,1.513,5.292,2.065,8H312c-4.418,0-8,3.582-8,8s3.582,8,8,8h24c0,22.482-12.085,45.18-26.173,64
		H296c-4.418,0-8,3.582-8,8s3.582,8,8,8h0.683c-1.255,1.404-2.502,2.77-3.735,4.093c-7.218,7.751-9.084,18.579-4.871,28.26
		c3.092,7.104,8.875,12.229,15.922,14.438V344h-96V328z M376,424c-17.645,0-32-14.355-32-32c0-2.141,0.217-4.297,0.646-6.408
		c0.478-2.353-0.126-4.796-1.646-6.654c-1.52-1.859-3.793-2.938-6.194-2.938H175.194c-2.401,0-4.675,1.078-6.194,2.938
		c-1.519,1.858-2.124,4.302-1.646,6.654c0.429,2.111,0.646,4.268,0.646,6.408c0,17.645-14.355,32-32,32s-32-14.355-32-32
		s14.355-32,32-32h64h112h64c17.645,0,32,14.355,32,32S393.645,424,376,424z"/>
	<path d="M256,408c-4.418,0-8,3.582-8,8v88c0,4.418,3.582,8,8,8s8-3.582,8-8v-88C264,411.582,260.418,408,256,408z"/>
	<path d="M208,408c-4.418,0-8,3.582-8,8v88c0,4.418,3.582,8,8,8s8-3.582,8-8v-88C216,411.582,212.418,408,208,408z"/>
	<path d="M304,408c-4.418,0-8,3.582-8,8v88c0,4.418,3.582,8,8,8s8-3.582,8-8v-88C312,411.582,308.418,408,304,408z"/>
	<path d="M136.02,384h-0.01c-4.418,0-7.995,3.582-7.995,8s3.586,8,8.005,8s8-3.582,8-8S140.438,384,136.02,384z"/>
	<path d="M376.02,384h-0.01c-4.418,0-7.995,3.582-7.995,8s3.586,8,8.005,8s8-3.582,8-8S380.438,384,376.02,384z"/>
</g>
<g>
</g>
<g>
</g>
<g>
</g>
<g>
</g>
<g>
</g>
<g>
</g>
<g>
</g>
<g>
</g>
<g>
</g>
<g>
</g>
<g>
</g>
<g>
</g>
<g>
</g>
<g>
</g>
<g>
</g>
</svg>
