<?xml version="1.0" encoding="iso-8859-1"?>
<!-- Generator: Adobe Illustrator 17.1.0, SVG Export Plug-In . SVG Version: 6.00 Build 0)  -->
<!DOCTYPE svg PUBLIC "-//W3C//DTD SVG 1.1//EN" "http://www.w3.org/Graphics/SVG/1.1/DTD/svg11.dtd">
<svg version="1.1" id="Capa_1" xmlns="http://www.w3.org/2000/svg" xmlns:xlink="http://www.w3.org/1999/xlink" x="0px" y="0px"
	 viewBox="0 0 512 512" style="enable-background:new 0 0 512 512;" xml:space="preserve">
<path d="M364.382,432.103c-3.473-5.2-7.581-9.868-12.176-13.936c0.194-0.69,0.305-1.415,0.305-2.167v-24.322
	c57.515-4.362,102.979-52.555,102.979-111.167c0-40.232-11.897-90.97-31.049-132.415C401.763,99.025,373.196,72,344,72
	c-17.563,0-34.555,9.404-50.604,27.963c-1.021-2.334-2.055-4.654-3.113-6.944C262.563,33.035,227.84,0,192.511,0
	s-70.052,33.035-97.772,93.019C71.159,144.045,56.511,206.496,56.511,256c0,72.305,56.719,131.603,128,135.758v42.054
	c-5.226-1.197-10.572-1.813-16-1.813c-39.701,0-72,32.299-72,72c0,4.418,3.582,8,8,8h224h96c4.418,0,8-3.582,8-8
	C432.511,465.598,402.29,434.121,364.382,432.103z M304.511,400c-16.316,0-32.299,5.61-45.006,15.797
	c-0.306,0.245-0.581,0.514-0.841,0.792c-3.333-0.385-6.719-0.589-10.153-0.589c-17.182,0-33.782,5.032-48,14.344v-38.586
	c26.767-1.561,51.476-10.896,71.903-25.779c18.142,15.227,40.46,24.199,64.097,25.767v15.821
	C326.704,402.676,315.772,400,304.511,400z M308.36,327.162l28.151,28.151v20.371c-18.851-1.463-36.685-8.406-51.505-20.08
	C294.008,347.239,301.879,337.674,308.36,327.162z M344,88c22.27,0,46.295,24.351,65.916,66.808
	c17.965,38.876,29.573,88.217,29.573,125.703c0,49.784-38.298,90.785-86.979,95.106v-23.614c0-0.001,0-0.003,0-0.005v-20.684
	l41.657-41.657c3.125-3.124,3.125-8.189,0-11.313c-3.124-3.124-8.189-3.124-11.313,0l-30.343,30.343V288c0-4.418-3.582-8-8-8
	s-8,3.582-8,8v39.998c0,0.001,0,0.003,0,0.005v4.684l-18.343-18.343c-0.635-0.635-1.354-1.135-2.117-1.511
	c7.992-17.303,12.46-36.554,12.46-56.832c0-42.036-10.566-93.403-28.189-139.187C310.329,103.662,326.024,88,344,88z M72.511,256
	c0-46.617,14.426-107.956,36.752-156.269C133.853,46.519,164.196,16,192.511,16s58.657,30.519,83.248,83.731
	c22.326,48.313,36.752,109.652,36.752,156.269c0,36.82-16.675,69.815-42.864,91.845c-1.08,0.409-2.091,1.052-2.943,1.942
	c-0.354,0.37-0.661,0.768-0.93,1.182c-18.304,14.153-40.792,23.138-65.264,24.758v-68.414l45.657-45.657
	c3.125-3.124,3.125-8.189,0-11.313c-3.124-3.124-8.189-3.124-11.313,0l-34.343,34.343v-20.684c0-0.001,0-0.003,0-0.005V192
	c0-4.418-3.582-8-8-8s-8,3.582-8,8v52.687l-18.343-18.343c-3.124-3.124-8.189-3.124-11.313,0c-3.125,3.124-3.125,8.189,0,11.313
	l29.657,29.657v36.684c0,0.001,0,0.003,0,0.005v20.684l-42.343-42.343c-3.124-3.124-8.189-3.124-11.313,0
	c-3.125,3.124-3.125,8.189,0,11.313l52,52c0.506,0.506,1.066,0.921,1.657,1.263v28.808C122.059,371.595,72.511,319.479,72.511,256z
	 M113.081,496c3.894-27.103,27.268-48,55.43-48c7.761,0,15.316,1.588,22.457,4.722c2.918,1.279,6.318,0.707,8.654-1.46
	C213.014,438.84,230.376,432,248.511,432c36.997,0,67.566,28.051,71.559,64H113.081z M336.143,496
	c-3.082-34.037-25.624-62.538-56.384-74.262c7.622-3.774,16.007-5.738,24.751-5.738c19.888,0,38.457,10.743,48.462,28.037
	c1.444,2.496,4.137,4.03,7,3.994c0.232-0.002,0.461-0.013,0.715-0.03c28.084,0.086,51.367,20.953,55.252,48H336.143z"/>
<g>
</g>
<g>
</g>
<g>
</g>
<g>
</g>
<g>
</g>
<g>
</g>
<g>
</g>
<g>
</g>
<g>
</g>
<g>
</g>
<g>
</g>
<g>
</g>
<g>
</g>
<g>
</g>
<g>
</g>
</svg>
